<mxfile host="65bd71144e">
    <diagram id="KlrD0uvl8U4eGlqoOLIs" name="Page-1">
        <mxGraphModel dx="956" dy="408" grid="1" gridSize="10" guides="1" tooltips="1" connect="1" arrows="1" fold="1" page="1" pageScale="1" pageWidth="850" pageHeight="1100" math="0" shadow="0">
            <root>
                <mxCell id="0"/>
                <mxCell id="1" parent="0"/>
                <mxCell id="16" value="n" style="endArrow=open;html=1;endSize=12;startArrow=diamondThin;startSize=14;startFill=1;edgeStyle=orthogonalEdgeStyle;align=left;verticalAlign=bottom;" parent="1" edge="1">
                    <mxGeometry x="-0.7143" relative="1" as="geometry">
                        <mxPoint x="320" y="100" as="sourcePoint"/>
                        <mxPoint x="180" y="100" as="targetPoint"/>
                        <mxPoint as="offset"/>
                    </mxGeometry>
                </mxCell>
                <mxCell id="2" value="Customer" style="swimlane;fontStyle=0;childLayout=stackLayout;horizontal=1;startSize=26;fillColor=none;horizontalStack=0;resizeParent=1;resizeParentMax=0;resizeLast=0;collapsible=1;marginBottom=0;" parent="1" vertex="1">
                    <mxGeometry x="40" y="80" width="140" height="156" as="geometry">
                        <mxRectangle x="40" y="80" width="90" height="30" as="alternateBounds"/>
                    </mxGeometry>
                </mxCell>
                <mxCell id="3" value="_id: ObjectId" style="text;strokeColor=none;fillColor=none;align=left;verticalAlign=top;spacingLeft=4;spacingRight=4;overflow=hidden;rotatable=0;points=[[0,0.5],[1,0.5]];portConstraint=eastwest;" parent="2" vertex="1">
                    <mxGeometry y="26" width="140" height="26" as="geometry"/>
                </mxCell>
                <mxCell id="4" value="name: String" style="text;strokeColor=none;fillColor=none;align=left;verticalAlign=top;spacingLeft=4;spacingRight=4;overflow=hidden;rotatable=0;points=[[0,0.5],[1,0.5]];portConstraint=eastwest;" parent="2" vertex="1">
                    <mxGeometry y="52" width="140" height="26" as="geometry"/>
                </mxCell>
                <mxCell id="5" value="phone: String" style="text;strokeColor=none;fillColor=none;align=left;verticalAlign=top;spacingLeft=4;spacingRight=4;overflow=hidden;rotatable=0;points=[[0,0.5],[1,0.5]];portConstraint=eastwest;" parent="2" vertex="1">
                    <mxGeometry y="78" width="140" height="26" as="geometry"/>
                </mxCell>
                <mxCell id="6" value="id_document: String" style="text;strokeColor=none;fillColor=none;align=left;verticalAlign=top;spacingLeft=4;spacingRight=4;overflow=hidden;rotatable=0;points=[[0,0.5],[1,0.5]];portConstraint=eastwest;" parent="2" vertex="1">
                    <mxGeometry y="104" width="140" height="26" as="geometry"/>
                </mxCell>
                <mxCell id="7" value="address: String" style="text;strokeColor=none;fillColor=none;align=left;verticalAlign=top;spacingLeft=4;spacingRight=4;overflow=hidden;rotatable=0;points=[[0,0.5],[1,0.5]];portConstraint=eastwest;" parent="2" vertex="1">
                    <mxGeometry y="130" width="140" height="26" as="geometry"/>
                </mxCell>
                <mxCell id="8" value="Sale" style="swimlane;fontStyle=0;childLayout=stackLayout;horizontal=1;startSize=26;fillColor=none;horizontalStack=0;resizeParent=1;resizeParentMax=0;resizeLast=0;collapsible=1;marginBottom=0;" parent="1" vertex="1">
                    <mxGeometry x="320" y="80" width="140" height="130" as="geometry"/>
                </mxCell>
                <mxCell id="9" value="_id: ObjectId" style="text;strokeColor=none;fillColor=none;align=left;verticalAlign=top;spacingLeft=4;spacingRight=4;overflow=hidden;rotatable=0;points=[[0,0.5],[1,0.5]];portConstraint=eastwest;" parent="8" vertex="1">
                    <mxGeometry y="26" width="140" height="26" as="geometry"/>
                </mxCell>
                <mxCell id="10" value="dateTime: DateTime" style="text;strokeColor=none;fillColor=none;align=left;verticalAlign=top;spacingLeft=4;spacingRight=4;overflow=hidden;rotatable=0;points=[[0,0.5],[1,0.5]];portConstraint=eastwest;" parent="8" vertex="1">
                    <mxGeometry y="52" width="140" height="26" as="geometry"/>
                </mxCell>
                <mxCell id="11" value="number: Number" style="text;strokeColor=none;fillColor=none;align=left;verticalAlign=top;spacingLeft=4;spacingRight=4;overflow=hidden;rotatable=0;points=[[0,0.5],[1,0.5]];portConstraint=eastwest;" parent="8" vertex="1">
                    <mxGeometry y="78" width="140" height="26" as="geometry"/>
                </mxCell>
                <mxCell id="48" value="customer_id: ObjectId" style="text;strokeColor=none;fillColor=none;align=left;verticalAlign=top;spacingLeft=4;spacingRight=4;overflow=hidden;rotatable=0;points=[[0,0.5],[1,0.5]];portConstraint=eastwest;" parent="8" vertex="1">
                    <mxGeometry y="104" width="140" height="26" as="geometry"/>
                </mxCell>
                <mxCell id="17" value="Product" style="swimlane;fontStyle=0;childLayout=stackLayout;horizontal=1;startSize=26;fillColor=none;horizontalStack=0;resizeParent=1;resizeParentMax=0;resizeLast=0;collapsible=1;marginBottom=0;" parent="1" vertex="1">
                    <mxGeometry x="580" y="280" width="140" height="156" as="geometry"/>
                </mxCell>
                <mxCell id="27" value="n" style="endArrow=open;html=1;endSize=12;startArrow=diamondThin;startSize=14;startFill=1;edgeStyle=orthogonalEdgeStyle;align=left;verticalAlign=bottom;entryX=0;entryY=0.5;entryDx=0;entryDy=0;" parent="17" target="18" edge="1">
                    <mxGeometry x="-1" y="3" relative="1" as="geometry">
                        <mxPoint x="-120" y="38.56999999999999" as="sourcePoint"/>
                        <mxPoint x="40" y="38.56999999999999" as="targetPoint"/>
                    </mxGeometry>
                </mxCell>
                <mxCell id="18" value="_id: ObjectId" style="text;strokeColor=none;fillColor=none;align=left;verticalAlign=top;spacingLeft=4;spacingRight=4;overflow=hidden;rotatable=0;points=[[0,0.5],[1,0.5]];portConstraint=eastwest;" parent="17" vertex="1">
                    <mxGeometry y="26" width="140" height="26" as="geometry"/>
                </mxCell>
                <mxCell id="19" value="description: String" style="text;strokeColor=none;fillColor=none;align=left;verticalAlign=top;spacingLeft=4;spacingRight=4;overflow=hidden;rotatable=0;points=[[0,0.5],[1,0.5]];portConstraint=eastwest;" parent="17" vertex="1">
                    <mxGeometry y="52" width="140" height="26" as="geometry"/>
                </mxCell>
                <mxCell id="20" value="unit: String" style="text;strokeColor=none;fillColor=none;align=left;verticalAlign=top;spacingLeft=4;spacingRight=4;overflow=hidden;rotatable=0;points=[[0,0.5],[1,0.5]];portConstraint=eastwest;" parent="17" vertex="1">
                    <mxGeometry y="78" width="140" height="26" as="geometry"/>
                </mxCell>
                <mxCell id="21" value="price: Number" style="text;strokeColor=none;fillColor=none;align=left;verticalAlign=top;spacingLeft=4;spacingRight=4;overflow=hidden;rotatable=0;points=[[0,0.5],[1,0.5]];portConstraint=eastwest;" parent="17" vertex="1">
                    <mxGeometry y="104" width="140" height="26" as="geometry"/>
                </mxCell>
                <mxCell id="51" value="suplier_id: ObjectId" style="text;strokeColor=none;fillColor=none;align=left;verticalAlign=top;spacingLeft=4;spacingRight=4;overflow=hidden;rotatable=0;points=[[0,0.5],[1,0.5]];portConstraint=eastwest;" parent="17" vertex="1">
                    <mxGeometry y="130" width="140" height="26" as="geometry"/>
                </mxCell>
                <mxCell id="22" value="SaleItem" style="swimlane;fontStyle=0;childLayout=stackLayout;horizontal=1;startSize=26;fillColor=none;horizontalStack=0;resizeParent=1;resizeParentMax=0;resizeLast=0;collapsible=1;marginBottom=0;" parent="1" vertex="1">
                    <mxGeometry x="320" y="280" width="140" height="104" as="geometry"/>
                </mxCell>
                <mxCell id="24" value="order:Â  Number" style="text;strokeColor=none;fillColor=none;align=left;verticalAlign=top;spacingLeft=4;spacingRight=4;overflow=hidden;rotatable=0;points=[[0,0.5],[1,0.5]];portConstraint=eastwest;" parent="22" vertex="1">
                    <mxGeometry y="26" width="140" height="26" as="geometry"/>
                </mxCell>
                <mxCell id="25" value="quantity: Number" style="text;strokeColor=none;fillColor=none;align=left;verticalAlign=top;spacingLeft=4;spacingRight=4;overflow=hidden;rotatable=0;points=[[0,0.5],[1,0.5]];portConstraint=eastwest;" parent="22" vertex="1">
                    <mxGeometry y="52" width="140" height="26" as="geometry"/>
                </mxCell>
                <mxCell id="50" value="product_id: ObjectId" style="text;strokeColor=none;fillColor=none;align=left;verticalAlign=top;spacingLeft=4;spacingRight=4;overflow=hidden;rotatable=0;points=[[0,0.5],[1,0.5]];portConstraint=eastwest;" parent="22" vertex="1">
                    <mxGeometry y="78" width="140" height="26" as="geometry"/>
                </mxCell>
                <mxCell id="26" value="n" style="endArrow=open;html=1;endSize=12;startArrow=diamondThin;startSize=14;startFill=1;align=left;verticalAlign=bottom;" parent="1" edge="1">
                    <mxGeometry x="-0.7143" y="-11" relative="1" as="geometry">
                        <mxPoint x="399" y="280" as="sourcePoint"/>
                        <mxPoint x="399" y="210" as="targetPoint"/>
                        <mxPoint y="-1" as="offset"/>
                    </mxGeometry>
                </mxCell>
                <mxCell id="52" value="Address" style="swimlane;fontStyle=0;childLayout=stackLayout;horizontal=1;startSize=26;fillColor=none;horizontalStack=0;resizeParent=1;resizeParentMax=0;resizeLast=0;collapsible=1;marginBottom=0;" parent="1" vertex="1">
                    <mxGeometry x="40" y="380" width="140" height="182" as="geometry">
                        <mxRectangle x="40" y="80" width="90" height="30" as="alternateBounds"/>
                    </mxGeometry>
                </mxCell>
                <mxCell id="54" value="street: String" style="text;strokeColor=none;fillColor=none;align=left;verticalAlign=top;spacingLeft=4;spacingRight=4;overflow=hidden;rotatable=0;points=[[0,0.5],[1,0.5]];portConstraint=eastwest;" parent="52" vertex="1">
                    <mxGeometry y="26" width="140" height="26" as="geometry"/>
                </mxCell>
                <mxCell id="55" value="number: String" style="text;strokeColor=none;fillColor=none;align=left;verticalAlign=top;spacingLeft=4;spacingRight=4;overflow=hidden;rotatable=0;points=[[0,0.5],[1,0.5]];portConstraint=eastwest;" parent="52" vertex="1">
                    <mxGeometry y="52" width="140" height="26" as="geometry"/>
                </mxCell>
                <mxCell id="56" value="district: String" style="text;strokeColor=none;fillColor=none;align=left;verticalAlign=top;spacingLeft=4;spacingRight=4;overflow=hidden;rotatable=0;points=[[0,0.5],[1,0.5]];portConstraint=eastwest;" parent="52" vertex="1">
                    <mxGeometry y="78" width="140" height="26" as="geometry"/>
                </mxCell>
                <mxCell id="57" value="city: String" style="text;strokeColor=none;fillColor=none;align=left;verticalAlign=top;spacingLeft=4;spacingRight=4;overflow=hidden;rotatable=0;points=[[0,0.5],[1,0.5]];portConstraint=eastwest;" parent="52" vertex="1">
                    <mxGeometry y="104" width="140" height="26" as="geometry"/>
                </mxCell>
                <mxCell id="58" value="state: String" style="text;strokeColor=none;fillColor=none;align=left;verticalAlign=top;spacingLeft=4;spacingRight=4;overflow=hidden;rotatable=0;points=[[0,0.5],[1,0.5]];portConstraint=eastwest;" parent="52" vertex="1">
                    <mxGeometry y="130" width="140" height="26" as="geometry"/>
                </mxCell>
                <mxCell id="59" value="zip_code: String" style="text;strokeColor=none;fillColor=none;align=left;verticalAlign=top;spacingLeft=4;spacingRight=4;overflow=hidden;rotatable=0;points=[[0,0.5],[1,0.5]];portConstraint=eastwest;" parent="52" vertex="1">
                    <mxGeometry y="156" width="140" height="26" as="geometry"/>
                </mxCell>
                <mxCell id="60" value="" style="endArrow=open;html=1;endSize=12;startArrow=diamondThin;startSize=14;startFill=1;align=left;verticalAlign=bottom;entryX=0.513;entryY=1.165;entryDx=0;entryDy=0;entryPerimeter=0;exitX=0.5;exitY=0;exitDx=0;exitDy=0;" parent="1" source="52" target="7" edge="1">
                    <mxGeometry x="-0.9943" y="-10" relative="1" as="geometry">
                        <mxPoint x="100" y="320" as="sourcePoint"/>
                        <mxPoint x="260" y="320" as="targetPoint"/>
                        <mxPoint as="offset"/>
                    </mxGeometry>
                </mxCell>
                <mxCell id="62" value="Supplier" style="swimlane;fontStyle=0;childLayout=stackLayout;horizontal=1;startSize=26;fillColor=none;horizontalStack=0;resizeParent=1;resizeParentMax=0;resizeLast=0;collapsible=1;marginBottom=0;" parent="1" vertex="1">
                    <mxGeometry x="320" y="470" width="140" height="156" as="geometry"/>
                </mxCell>
                <mxCell id="63" value="_id: ObjectId" style="text;strokeColor=none;fillColor=none;align=left;verticalAlign=top;spacingLeft=4;spacingRight=4;overflow=hidden;rotatable=0;points=[[0,0.5],[1,0.5]];portConstraint=eastwest;" parent="62" vertex="1">
                    <mxGeometry y="26" width="140" height="26" as="geometry"/>
                </mxCell>
                <mxCell id="64" value="name:Â  String" style="text;strokeColor=none;fillColor=none;align=left;verticalAlign=top;spacingLeft=4;spacingRight=4;overflow=hidden;rotatable=0;points=[[0,0.5],[1,0.5]];portConstraint=eastwest;" parent="62" vertex="1">
                    <mxGeometry y="52" width="140" height="26" as="geometry"/>
                </mxCell>
                <mxCell id="65" value="phone: Number" style="text;strokeColor=none;fillColor=none;align=left;verticalAlign=top;spacingLeft=4;spacingRight=4;overflow=hidden;rotatable=0;points=[[0,0.5],[1,0.5]];portConstraint=eastwest;" parent="62" vertex="1">
                    <mxGeometry y="78" width="140" height="26" as="geometry"/>
                </mxCell>
                <mxCell id="66" value="country: String" style="text;strokeColor=none;fillColor=none;align=left;verticalAlign=top;spacingLeft=4;spacingRight=4;overflow=hidden;rotatable=0;points=[[0,0.5],[1,0.5]];portConstraint=eastwest;" parent="62" vertex="1">
                    <mxGeometry y="104" width="140" height="26" as="geometry"/>
                </mxCell>
                <mxCell id="73" value="email: String" style="text;strokeColor=none;fillColor=none;align=left;verticalAlign=top;spacingLeft=4;spacingRight=4;overflow=hidden;rotatable=0;points=[[0,0.5],[1,0.5]];portConstraint=eastwest;" vertex="1" parent="62">
                    <mxGeometry y="130" width="140" height="26" as="geometry"/>
                </mxCell>
                <mxCell id="67" value="" style="endArrow=open;html=1;endSize=12;startArrow=diamondThin;startSize=14;startFill=1;align=left;verticalAlign=bottom;exitX=1;exitY=0.5;exitDx=0;exitDy=0;entryX=-0.009;entryY=0.089;entryDx=0;entryDy=0;entryPerimeter=0;" parent="1" source="58" target="64" edge="1">
                    <mxGeometry x="-0.7121" y="3" relative="1" as="geometry">
                        <mxPoint x="330" y="520" as="sourcePoint"/>
                        <mxPoint x="240" y="610" as="targetPoint"/>
                        <mxPoint as="offset"/>
                    </mxGeometry>
                </mxCell>
                <mxCell id="68" value="" style="endArrow=open;html=1;endSize=12;startArrow=diamondThin;startSize=14;startFill=1;edgeStyle=orthogonalEdgeStyle;align=left;verticalAlign=bottom;entryX=1.023;entryY=0.864;entryDx=0;entryDy=0;entryPerimeter=0;" parent="1" target="64" edge="1">
                    <mxGeometry x="-0.8644" y="10" relative="1" as="geometry">
                        <mxPoint x="640" y="441" as="sourcePoint"/>
                        <mxPoint x="500" y="460" as="targetPoint"/>
                        <mxPoint as="offset"/>
                    </mxGeometry>
                </mxCell>
                <mxCell id="69" value="" style="shape=stencil(rZ3Zzhw3koWfRrcF7st1z/R7GLDcEtpjGbJ7lrcfcoys+uucqo82MHdaIiqZzGDEiZWf8t9++/LDr58/pfDb79+//fPzf3398fcvn/K/fUrp6y9fPn//+vv606f875/y33769v3zP75/+9cvP/7x919/2JT7T//x7T/3L/z3H3yx3NrcXCn8zx//Em4j/N8//P0P+p+//vJMn7PSR6DPt96VviN9KUI/E9KHofQD6JO+b7wFWk+65SD0kX4/3ob+fqb1x1vpQl8m0gelbw3og7/vKEif6xN9ugVY/7zNKeQJxGHeWhfyDG87r717kFfY/HGbTcg77M24tSLkE7Zm3PIzeb5FeNVxC0qeYO391pW8IHlR8obksQr5APKmQlNuCXam3XIU8gbk9drmi7zeAghBvbUg5BVObL2l51dttwgKreh5bbiR5RLAi7zfEiymXN/8QU7aLOvODFzM0q3PrzpvEX+9diGn05RV3pduoJ3M18M/0JMYpMsQ3OnjLWWib1XpyVSlW5H1sLJZmiso/UT68Cz1yxbVCqr1MpR3+oIKJNr7rmMF+xNvVX6/Xqf+DX0JSk/qcn2dZ+0aG5uqW3xGCrHfMv6+7udA0xnM0k5UmeHWxVStf4H9XP/7vJ79xfH3mxirJQ8gn+FWxfwUhEZBkcJSVXRegsr/Nhq4/vysq5b26bj/ihTmbeB6xJjnBdVA/oNalRxvE/dHf5/tua0/50ui/tz+5PW9cH9k//M6X7j/8n0zm6JwaZs7fUf9EFSf5HGhsXfy/3ze80T9cP+adxQQLjz27rw/72dJKM/xsrR3+nydoHf67Xn9hb+X6dvSLg32Tp8/67dy0m8Clcu4vvgb+yKYrcxLw7+zX8/7WZdEgf5Pqv9rvE7EG3qxLzWhfUmqDxc9gZ90aZs7fb6+yDv8IPTlQixv6EU+68KdiB/mUHoCnssTfZaH2hDX3t2HD/SEN7La09pRng2P1XF9kXfrl/ed1wl6R//8+y3cEuKl+bz+FtGeJj1fjV3XpB5US/i+Jp8tIx5e8v+sT1o5rF/OS2P8lq7Teqe/uzJv6MUeLXpy6tL1de70y76gPolC3w/4OT7rkzYO+kHOy6KfFHpS777Ny019R/+8nr4sJur/8bz/PV6xrj+H5/vaAQolXd7KB3oMbal+6/mA/8fz/vRyWL+cx14vBP7ueyWlZ/8uPp/HznjV5HPRH/y7ZzzQ+8F+SVBj0fN5EWe8D5T/fMVIPtATns+qf/q8EO+bWEKYSk940iK7I1we3JvAieCBwf5R0/cdC6GBPHe1d4ue8O1QezSWRMH6p+qTRU/nZV7exJ0+o72OwaIzy2DQAbvbqw8M5GHEdG34naFgODVaSGcxEOaLReOGo7ASrXoqFwOdmtiuj3RnWGqFYHHXiPZgu7cYpj2h0HcYagkWAyGDOO3DVcxy7FiEMDTWpfFS/R8YIhnXrOHkxYBo9y45HxgoXLPOf7YlNdK/TR2sxdCJoWvAfTEQgl0qQEzmYphkQqZi9tE5ZmnplMWQKCiaFFUvBory5KwwajGQLOVltWVJA/VqrqYEBn6H3GxbJ6qZPBTaLYYORzRPfYcZ8EwXS1MtBnpCMW96RsxRlHyBjw8MFP4olumcnAor1V46IQArTSNQi4FOXOlqcmdCiFGGxhBmRoxapqqZyUHMGhQVLgYS77pOnCypYNai3lH1BwaycTXbhysoS7Vc5uPOwJGBHQgoykBHdHn2dSpDpiRWv1yzDwzkjC/f3pdE4GQ59zUYA+UEw4tdImld7nq2JSGDeQCbAWRpOezJ3gEZiiqyM8P0dyCGql7bZiAUfQ/yfmQA0VheeLUnIE4fCuwXAwVSmqXdZ8PzsBxrPXENDcr2rIcyYLo7We6y4Tt0z4129k6KugOzo3v78GbvDAOBbrec/WIo9IRhSmBcOazXDFNTVnNiiGp5eCqt7IMOCzIsBnqHYVHXxUBRmO0idWOgJRXN603OAy4s3+2lCy2paQXC3iU4cQvhFdslOg8b4WVlwA83TC8NRMYLsEm0YcsSedPhhXhT+HtafnUxUDxmWkJnMRASWAziHq8jOugdkvpAs6P2nhYjWgzkZW041ZSBlMBiUFlqV4Xca4ZiiIz9uI2OmjIk0N6LQc90xTDFBjsGTigTt7GLGXYKDc+qucfJYYrFII7fRpXE0C5r8BHokmg0DTcuYSEva39XeQLHuxaDWqCA2HtbtGcbt045ZSwXg4DEwSnj2dU+LOVJOd19giXqUHhJQ5HASOiAT6vaW0YMj+jQOpF+B0SvGaaCxGXqycZt5S5VXoXPw1Qo3bmwcZtAiS0HVsam7hcKJOy9GSSb1Fg0pqrKhZWpXGQzSP4mseabqiqXC3Jg0Az1wAj5/g6SAm9XEuhPfunlClIN15al5yO6vFPU3vNC2neGhNh7i7dUU4bL2Xx7gKQOgdHMtvtSSDFOR1TEuxys6NAi69KwlG6rGVkSB2g3NI/KQIHBrfmet3XHg2hb75r0zpD5PCyQGJUBZalrJLGkk8maUkESscJgMUh5dokYddhGUT5cOD1BkliLodITqsYqF0Oibb2HPS6GPLEMbFrBcL67Ue/wkuxSnlioOC1ztxio6WBa00SerASyfoc8sLZuYRfBGouBQvGLQSBc5urABXbE8VsMaOOiRn8WAwpf0FrsPFDNjGkVbePklvk7BHpCt23tGKAdTcPYi4FQ5cZfxnBwj6eVCeIuZdV8i4Eg3Ei2rQ2Fb5gflxvK0k5EB2UggLUDIUUZKN7ahwLd3Dhc1G1budqrdy3fyhXLWRfozE0ZKPPaq2K+XPFM93sm9wMDAazFIPHWzQB2umeNVW4G2qVkwlfxAPWkSOC0rfEKDn34cIQEusXIcsNM02LQZpuG+ek2Tbcy9m5DQy07pQeqcjGoBeoYX2rdDErHwKCHsbdeoneomsXfmo/i3tWEb2A+rhUtqNvqnuLeWcOn2wKBeDcrEc1cYrkzHEUZ6AC1aAdo8Je2RGoeCH/qVIB1YrBqisx1TtVVJUOHXQdrT6AA7XLChhn2wBk/qd3b0ko9aI7IOj8h2ZJYCWw3T57Ayrhaem0xBHpCsCNa0I/buV2RJU4G7wJ1sXGJu+mG4aWIftxikBx7DuixL89TwMnuUoEDtBikwONRhfKaoalB2b2clPa3FGFqGMzZrqp0ClWMYC1XVVuFCpb+lazn4VFt/o5BkvK7PJSekFQ0dr8IvXS09sCJ5cGLQdzjyNmy5UjKh4uMvfPUnGJs2HydTbzjoYVgWA9iQSuaLYgQOYz9QBZ3hoRQeuMva7ukSOJi8D5QisJlk9bFQODk0ad1D5Rjwm/RyyYNnBGw+8Ykrs6NssnC6scaMimcQ68ye6U5OgKLXoBPR3vrRXCd3zdoCL6jeV708r6dGxssUsxgNU11rRoXdltenRvt0j2v/6AneUtWodFQHvbrKT15JNtcSJybqyKbllxxo+9usG9CTzG63b+fhD7T+osqXgYuuy3++ffL5d6/oxfPmQvGdueQxEm5ccU6GzI2vu7ObIFFWALxGHnyoE9Mr52pGC3c5c06hQNnvswr8v2gx/LpofozYSBv0VelJ18zmpU8NN50tReMVXafus5YwcYki7PzYIKNGsRCItJf9EnXQwY1Vo3rRARCi16BEM/0qT6DBhtri9qLw+9n1f8RK7E25FF6sl97xpDN3DnMJNLvhTN9sp6XiI0r0aL3hxlGL2Ykkf6JFoULiHP3/kehp6qZmLXSIZz2Xzo7j78/jZ7kuWiy7zCjqqh9PzSuF5d/bBQvan8j2sdNrzOnsKkna5oiopcRzds7nq+u66HG7C1vKv+H71v198mH2fKfdT9Z3uw8HrqqjJ7wueuHwC1SWeO9AfFMzJro4sE6+/zq71Nwa8uD6p//V3pLmAYeNGP2JfxF+3WYYWf28aAfzP4e9G1T+3WYeddVPxz0T1f5iVg3Ga34IfKgiqH134fzOPT7cqHbwpOmD3F/pkXYGL9NnwNH0a8Xk3W4U84mFSUM+O3tUPxPiYu9XJ3WRnhjw3elx8Z+wz8Z8W2yEtSCeHsPSdPxcRT6Thbf5GLPVK1MhQeLNP39ivY6Wb33wZ+1zuZ6ig/oZBQMIybr4qoY895zmzS+gf711FJvzn0ni4M2bowPPpKPqrty8N8/xK+i1C6e4mM2xI/0SbbJEx31SU6qP3nw1qLvGt8jfzDbZBeum8+Gx7iSPxu+5XKlRS+TkyaPLaw2UzWwADVVQJERXG6aYok8OyBbv13kBEi2pqo9zY+eMDVjEiu/g1mxhStIDXkPbeSBGLu4zybuUaCm2IiXZWopMlgssnaArsVc4RQ5mVZ06sO2hpRBLOrMPKZuvmawtt4drqSkpoVbtz6l79Bs0mDn/F630Xs8Smwx6Jhe7sIqQ1XGUsqEAcvU7FvmoErxEi3ulq7B6gP5iC4GTcHz+I0a1Q/dmg12qSZtItmqjWonvGCkYqinWjdcblyoYPNsc+f26qrBlczZn12dYYU7WDDSX1TJ0CCgXWGSlIHsw8saFizcCVbCe2CIL8pfKebQbJrsfmkqb7LxaHvqAlcrNf8O9ITyoqaL/PBmuHyLBu1SfSF8ZLKaRcIzQ7E9gsxKR8kX35VvxoAN3EODmbt0lL60NfPsgkIqivSyGm6q6vf8+QcG+nC7xtFKg+ildxWlFaeSC9xt+OLWfMSQNWe5GWhJr2pN6QDtBm5noCVVTUvsJYEs9WZ5Nq7D2TW/VpyKbe6uKnlkwq5brspAeGlXRluZGRnFxxCwD+JNR3REewLPfRvJtHfjfuxsdctcL7tr4I2BtMae3uR6iUrau6mZjvdEDIvJncryLamaOx7R3e1gypjQzAzqA2WuG5nRlHHnfrv4qj2CenPSixnHFKqaNibrYBSnxeIPpaN7vI3VmmKHa9HoygH+LIZqT6DmhemYb3D7XDWwPrizshoynngeZrUC24lIYDZ1LRcD9p82a58LfFNJU4ejsEsz7Uwvh5niaLPbPRhcKrf7saVQJaHWmF2RQGFvd5rjtz1sbuAWs7scZlySVeQuBqpG2u2k8gQeeLMbVuU7HPqxh5qsPTiLlyRneg/O+ktdusudpdaCF33AB+GbKks1YpB7Th37UDNG3Xe39LNoVB7UOG26zO6W5nfQCd0DE52LQRLZjafATZvheegpjyHol9tt67xNcoK203JYk801PnTS6+BhroeYFjrph0mn9qkXWD48QTLaC/tSvGg3xsvMhMGzKwzOLKB5OtQygzDxGAfrQt/DVA9N5bIkrsOcXYMz44B/ugXiJ7oo09zdGVhXdvUtF+aiXMhsNvwlMWCyAvIHInrHoGMROarmUGBWHmBTbfJQ5dEsVQukZ8NYy54HaAwo3sV2iUedTnN3H5/yHQ71AWeIErNmXQ4Dzqb5+BtNcFO5SuvARPG0kev70NITolb2zoNutRjwY17GOwaJMs/JLd92pd1kKLAdOZ9XdhgO5hPRyAPvWi8xeVL+sDDctkm0pGqTuLg5Zw+NthFqpGZ8DNwH0/02jDD/GofN537Y7rexENvYw0A+idHuT0exQSuF3tLEQwV1kuJAnLgMuY5THdhitONqNoWQ5pR0Kz/bioaDiRIb3KqM3sECD7OdIqjJ5k3Skto0NcA9H83coG334B1at/mrXHXxYlAox5lfjCJt+OFeDDtlAPRinOqBwQe28tSEFyNhDww+dPbA4GNtG6Z3q3XrTw6I1qHtH5OHw1eDibNyhq1pHGFyhVC1eM4BMdWiJbGTI9k124k7jEi2weqTq7pqMDtaeHq2FVRs0EUNota+uTAU9qzalRWTr7AqNtJpZowCl2bnIXMxQtU4wuRmn1IMbXA1ZPERmHwvWLG7D/ZgT6otsMD05JtGHrHGD24TVpANm2IeTgVGkiV84MDXDHbixkRsvK8BkKbVgSYr2/1gGzgSQ7ILVjr3xUa7g4ITyPs6hqoMeMXWUIA1uLU0Wd3W4Izzbt20JVF8M1mx2mDHLBW78KGh1vCL1AZnp5LdMT4aCt+jvv0DA17dagUVo6EsRYugHmInsdsFKBWdy2hNstsJoS6IZlWSle/nrXahEQ/pj8Vml1ZuRLQk+Cho2Pdt9U0ZsPUp6riLUfgdgrrgo3Bmx2JefGve0GjoyFiPZBnwfYsTpf01jzoShu7bi1uo8HIIvfV4xMON39JrN7hZxPzcPc4Wbw0TfNsnnhvzivvEsKnNMniUGLyhF5zX2erYrX/Lg8VmEQuO8zCAaLe8cbIo6sUCnSeU2fiwzhNgrca2F25WU53SGUJG9Tt7Yj1qv58Ot9xK0Vhn+bfSo85xfSus27c64vpFPhuP54nqSzWeGhZtSjEPq7BZhq1xM7Fa1nYwYyr/jZtXDBu0crj1UrNV+XArpabD8l+8FZSHAVjdZIuHW1OzpQypmSzpeWwB6/Zt7mmdqJ9Nf9bBwzO0F2V5/6R/kvUm8SAyuzilHi6as/VXHo6ifk2taN+ThltqOdyCLaXuexQby4+lwbH5SXuHajrcuisJtnpoztYYQg2MQm3uNNfBRI0KFm7usYGCpR/0lex/4emX0W4t53KQoEGZkjErFbS6sHDbQNDzUiKel2BDIycmjOzqo8w1DsFaBjg4/mqYKNUrBKuj4snoQWcf5HJ4Xy10zIg3gtU53qdrvaOX9UcM7fvvB8xE2foTp7psfxJfrmj7v3t58H11th/r52Czbwr6F5b52N2/uB7JsD4Q+7vzYnP9yF8LNuuB/ZFgsyR4Zrd1dkS+98v0SeRIR7AsI9+zFzVsEfl7RWsT5NGNlu+IfO2A4efd6Mj4Vuj5qpJos5D4/NosvMjDCZLN5uDhGckaOwM3r1vSDPutLHY3uZXYLuXlSXt2JTffZmt1YZiCtLE3jXszFTnzoG27lu1w46XKfeFrRDVPXrCbpFrhOXcN6atmjEI3n9dGJSNdhSBhhMWmCSYMCHR1GBNf0Kf4gq9fGlplmjD6YRc4R76LQ40hD0azTGzkm2+sKRzrbrai0LFoVEW86FW1ItLc98nrWCsqpItW9XAYg2WNOHydWEyauAjYPh5NtfLNLNF0ZeCxNTaGKfDYF6uI44aAaBc8c7lQLD5WiSLlsfzl9QzdT5Qfu7cvcCTSGuQCZr5icflEJGLlI4HHDL2gR0/6xXrQk37xvuhJv9hPHJP34nvhWKsX8oCR5hfyhpHOI/36w68//P7lj7/89PXnn3/7/fu3f37++P8/ffv++R/fv/3rlx/v//Tblx9+/bz+9r8=);lineShape=1;" parent="1" vertex="1">
                    <mxGeometry x="20.24096092160653" y="332.0991919930518" width="481.8121507840726" height="309.21502818465683" as="geometry"/>
                </mxCell>
                <mxCell id="71" value="" style="shape=stencil(lVbLUsMwDPyaXDWWbPlxhvIfzNDSDKVl2vL6e2QySSq3EcPNcbKxV7sru/N3p+3j27ojdzofDy/rz/7pvO38fUfU77frY3+WUedXnb/bHI7r5+Phff80PL891i/r6PXwUf/wNeByASwVRe57mPERAv3OPAyAXb+/AJQIFBQgyIw3AAVSVgBOkJIJCKwAsUAOBoCBNIeMgMYKWTZAClAccF4GpASsSZcEriwDIkPWK6Bz4Nwygn1bJqmDM4QIBLEBBCBeBngPsSlTBDRYk5RJs04M0agrMYSklfOQ0VwBnfYGQrY4ULtCQHCGN+pr1P4mYEsHHL02AuomjRVmihOAgQ3ScxEvVkiGmapMTUbFLFbkJiNMVaLR8UuRc9qubAt34eZJajaVq4HRdq2higZAIqnLVGNrsK6hjzoQDN6QurYVrVxtPcaW+CoQc3O77b4r5YrdLKX5el2luUEvAsp/ABTBaW9kEc4gjbGtUnaAltJA2hlJQmvI4Ns+Jolyxv/FF5oASyc0CFw5VXqC2ZTAaRt5NPlGiDo7hKbt0I/lmM4GGk+L2xuiNp1iIoOA7Lfo5NhN9fok+fOoYmy+T0oAGcwXjk2/2w33lcv37QVFpobLjV/9AA==);lineShape=1;" parent="1" vertex="1">
                    <mxGeometry x="374.98526926373256" y="40.23525779465922" width="3.223075511652496" height="3.224848179439846" as="geometry"/>
                </mxCell>
                <mxCell id="72" value="" style="shape=stencil(lZ3b0hw3joSfRrcdPB+uZ3fewxGWR4rxWg7Zs4e3X3Id1f13ZvfH1Z0OQDWLRYJAIgF+yn/748tPv3/+lMIff37/9s/P//X15z+/fMr/9imlr799+fz965/rT5/yv3/Kf/vl2/fP//j+7V+//fzX33//aUvuP/3Ht//cT/jvv/RKubW0tVL4n7/+JdxG/b9/+Ptf8r9+/e2jfL51lZ8J5NOt5Cf5eAsT5OOtFZFPEeTDrTeRz/m9fJ7X6z3kSwf5cRv6/Abjyd2f3wfIt9vQ+Zkw/7mqfLpFmP9crs/zkE80nnILXeRLAfl8y1HkKz1//bc+v9P3WtOhzx/0/LVcnp+fb4GeH67hPuQjPD9Nnc+M623JpybyBdZ/Gj6eBushrfU2RX7QePotPa+f9cFhPad2q0nkI41/rU+Vzw3lYxf5SuNf/91EvgeQz7c5RH7QeJKut8rrYa3PIPKVxhN0PJW/V7jF5+e3W4Txx3ktx4c8jSeu9RZFnvZX7Lf2vN462pPY1H7eH/Bavur+Gvy+9VaiyGcaT7mVIPJ03sV13j2/77xFsIdLPhaRLzR+Ox/XAQX7Ma7j53n9xHDtoNcKQSd0/UulEa3nVVWY8Avz2uB3+XWkwpG0VlxV+QFLol8H6F0+3TKMp93mVPmB8kmen9Fk1VvLKk/Pr7cgHk3B8Re1uEuetmS5Dri7fL3W1Osjzzyses3YG/n8vGPWnm5gUvJ1oNzl2UQsB0DWw7gFWD/pOiA+yHc6ktQiLhvZYAsvh0o8jnCt2NcbxjyUeNmkN/LiQW+XjDak7peDS3PffR/kO45fPKa1otBk3aJ4oJVNtK6HfeTB/IfLAb7LN3SZgnpAy2LQkR3UQ98+FIw/XAb5Lj9wPQS1V9sHhP3ySp7np4uHGw7zI89fPnLk8UyV77Ce1/w824fl4+cflJ+wnn08Ge2Pv285jEfns6JLbBHnkuf5Efu2Yr7C6+fZPufTenZ5Ok/DFXDd5cdpPuX5E+2Vv++KmX5kPa+YnkJs249lWTCczzFUnlxu89A3hoH2XDz0JT/JBb0Ajbt8Zofslp/nsxSERNZ5UVSe7JudR6ViCB+v3XqXb5eH8O48lef3C2N4d14HlSd7mK4A5y6/1jOFeLqey+SQ/Fq994gtXCfmG/9H/IcaLw/wjbycv0ue/Jl8ATJ3+XR5jO/8vefvVTOeR1kj+Mr+bdHzvZZrBb6Rj8/2vNYr4ngjn7vKE6RWFEGpa30S5Kjny5Kn/Vtu89n+1472qtp6GOgP11uS+Z94HtVbLipP51G9vLt7xB8wXqg6ny1iCLzio67yZH+qnhctoX9V1X9rGe1/VX+yZfy+7RZkfsr1Rm/kBcFqFSGIpvu9rV+E8Te1/0ueINNm37cfxiOIbOP4q9n3HVcO4Y28nO9toj/TLmvzQZ4gvnahE3eEKeDzu37fJU8Qa1c8pHMKo+v+XfJkn7ued/0eUb6TFwRuxY84nhZVnvyxrvPf87VC3uA5Iak8pYSG+j+9oD0c9r4FIcQVnYl8xRTJ0HhkydP7TsVb+t1ivJEXfGnJk32buh97R/tgGYklj3hFUAPUecMvBUGMlgIlzeLaIEEVyIVYClnmaKJNXwrixC0FdFoN1VkKFHUuBTFbI1xQ+TvkV+z0uE/DOwVJHSwFBF7Ki18Y9OGKztJI6GrFqrZoKVSG6yV4GJyfi+s0E4XM6FfT43uwOYpd45+lgJD6sBTCMkiE8Q9FnEbhCG7ahysIqS8FsUmDMd0VtIpRHQzqJst7joZe7A6Ln4/N0a9P+VrB9vQYiDulqIHHUpicq0vyHSYuvh36STInIFSSLLs9I364lPXwnPdw8LVCsfxP4WmtetzOiuHW9sefP9xsnDK1LTo7Asjbo3r+0nPgFl0KApnPiUmsNOzDTU6zTnVSlwImLYJ6SZNRgWyJuMlubU6KW61Zou+QLbGzFMgRyGa914fLhDzcEzkflkaj1FFXLGRW9PU2VNhV4cDnac+mcu2HQtF4VLu0dlwnuCJfxv2DAlKSygXX3hUSntMbP5MNFJkk1ewXOIVULMaYnKNdCtMUyEks45r1DwqJ3mFoGDYY9i1+xk2Mk6pt0cGJlRqV27APFPqFpND+UkAo5U7m+aBAsWQt+uEGg++1arQ62LYuBYFnB6erNtr1YwpdAfKtQACPLw1+hxauDflRAbboRqRsSIhJJPPIGDRu2bzKcbm+rxWKmvulQG5oa4qT79VKuEdXoGcr0CyNC0f/sIECISVGPloKFD/0aK70RKvRk4aWYyK43vMLq0HZh+7f4aBQleG0h0T4SlNTeXqHbqt1Xqy8dwoCeQ72l1Zs+2It0Tu4MR7oSo+grIS9H2BprFBVQ0u2fCuQDGY1iIr6iDw/KCCwZEyYHaHAd1hRm1BJVgxE07rDvKgKlHvcUVtXBXJDR9Ps12C2zeg2rR3pJOu/m0WKnb7D0ITEUiAAehiitqeBFRTXqMgaXb5L6apA2Mz0A6Vg0n4pSOB3QB2mpS0HR4oPL/UD1EKGbGZ1pTe+BB9uedr60gFxvlk0ylp2BBUsF7aRRPpwVclenUOaafzRZZ4JSZxG/9twMf1CU+RkHTEUP0ynwDJBYEVtOksR4dNHmHdXCOi3TsPI2kRwcyMAz9O6nAmC7aYdWa0h3roUxPK1ipZvB8PP+2Hn9VhBlvfyAgttoKFLYzmmZL2XgqaqmS28FCTwW841bqCh+2Enw+k7DA3x62G1DjX3KypCyzcUKK/hNCQl5LA3M4eG+CucpUhxTqXcFj5QpvlLO+in/TCVxFASIonTgJASkZW2FASF26VLtPimGoE8sDRlGiqdObE8jemdK384V2Dq3ot3SIgZb4VnU5mZPDYtG5c407QVnoe00UuepfS843YGnFerEAg2JYJfWhm4BRkxez8IRZYpEFuhqQKlRLaCvDQnjvaelneIJ+uthW8RafrbkMlLB56loYdiYiLBHJrhiJMzx3YCxXE8FE0BV2tXzzgeTGXXEyg2hE+3c5JUAV3ppnzTWBG2m0aQeSQ+3/l8WkGQEaCdVnQWE8cPRXPyMfLyzrq8dxKdfsEzTezBJUMp+HRIajMGkspmNBYFYhozmjeGRRYrIpO644ZQ1JKPwrpDO79DxCTylHcYfj5jXdgY6t9yCniYrSgYvG2cQOUp97OTscLqZqChGasb1+cwdDIzGFO1CoVJeqPoes548K9g2eqCqW56B9dyovH8JEUM0gne0qqey49+h59JJi0hYL3kg8oT36VPzckmXJ+bAqTzQ1nlbqw7tqDdbHTC6G7F1ML64jr0nq/t8ZAn0u+KqJuOn3CFFVBnnU8ChZs7dehAtWFVUkyStL4B7CivYLrq96VTuxWr+sP4ZoXSQ+UpCGxRveTIebCpzhkXma442sZD81+bVVEiqa8aFytgsmYF0QICcZC8c5dZ5Ok8XTG3wIkBXdEVckuYH5i0P5V2EnC/l6Gpo8PzLZkV0B4WYyHfy8pey9v656KhJV90/VC4XqoSsLgPSTEaT0TaTyneVyQRLaJc7uMHeZqfosn1iGh0sSoLJjv683m/lHtbh//n9y1qDwNiGaWqvQ14Xpeq9ipgUUCpel4EJC3v9an2hJIsxaosAlJBi52/h7491fvqUJaoVF9vhHyW6uuNUqDFqlYinr/7e+n6PO3HH5IvSt6N6M/v9Wz7l59vfZBwPl/tx4P8s38VEInY41H7TP5zKVqFG9B//mH5pv5A4Pnpuh4Cz8+L8wvtm0FsAf2HJd91PsnebvKTjof8w+U/NLWHdF4s/2SqPaHcSDVSHJ/vy7+KZt/o+UYRDchHWP5hM3tFRVVR4XXej8u/9f1O/rnFLxETbM1YuuwP72yajp/Olx1fqH0gMLRNJapFLMJd8VExeY6/7Lwg+9Mt+8190rrxqiMi3js+7SrPpJ9p8vT8obQLJpJvBo/NDxVhhR+Uj44PkH0b1ucqoX0bSf23hPZ5ZMdbKF7bJRoaz1JTnc33+BG8YslrVxG0V6PpeZ2wiG/jdZK4YuqRpcczv691WcoYPw47vzLuxzHV3yiM703tylQYQA/KJCycHgpWtY74wLyHfw958oen0f25Kc3G2xU/p+87k2ZJOp53M1vtC+cMsxHAET+cxbosBay4mNVyW1zNtrM21qcLc+7N0m2ZuUDNzmwu7No8GjHSldPP3pus4rbfGUBx6xvGnc4QiZ1JXMPSbePIrrD+W1Svv9PP4qpwMY5TGbbzSptt6ksfovldDSSnAYdvuxrI089MZVC8mAH4Oe0AzOhhboWsCochicuyaQCsoJ2sKjqNcyphfFMZmF0hWavU2axa8fKZjiGr9Uz4kBT6gVISQ1Auw4G18krjSIyR0/BMvdG3GGz7pnKmMncV2wrWVokQyTkVcSsJIb1pIe8mWfEvyJlbuKj1UeN3V+ic15/W3ZaL+LZlkmYu4bTnxPZVLh5zvtEKtQ8UKMk01Xoakrh6m3R4YAPJS3MZyBy6qzdxkg8t8d42NZOWhp1yK+BGFspQvHFnxPikltKu1jDi3GwgYbwOhChf8FEnN4YwNlBnkMzZQIfWIpsXLI0buNfk9GYn5cSeVn72kQ0kR/sKvfFot348vfNaMmh8BevImaq6p/uB91Ws8CqcvG+JDlf8jQrZulUcWLtZ45ORuZrAGrePwkvDEIOlgDzIaLWRlSmyQa33I2p/F4RqhwFuDTaMaTka00aGNmcbHQvghkUQ61+QSNTV+95UIfoFq1dYgyTo+1F880EBsRjLde1pILDEkpOHgtCR1V86FObupiJJFSioGck+HHddWxtSq2uYxb62vDAAxkQHa1N+rEyQ9nT3NiPzRPqRKGhwa+RlSbUJCPfmWgrJhkR5ze71bBPPuF2uabOEv1BeVJCSXVpHoFaFTwybetLc2lbgsln/cBRxdGODjYnpl2ZFGoMrtR494z6uVkowtBdDouXdvDkR95Vt+VWdLeVUkp2ivEV3GbnvacoiBSum5IKfXQpv70C/ULtZvondtnc5v61WzBTWF7+AbRXqi1kiZKMWLQM5FEjXrMmwMdETWArCphmTe/jHFy9NGFZ9tTTIaqy4MNvSwBYdhmHtjhtEcbAqp3ngWJlzMjksW9GzYFiTWXTFENcHbv5awZpzPoDz1wpF8zKTLxAq2fr0ZKwmeHR7visUpgpYA+hZ8ATKxk1fEQUF4NlaIO4gh5oTWY/LBxb+WqGqGzq5qW0uek5PrjbLWS8emuxg5aSow+QzLlvj8Y1pcZMovWkjMMsjWau4yde1pK40wo0gcfMt6VmzoQ5u7yW+9OTM0W4gJh+i8TsUdQXWcsULNCwYnQz0bWRc3iFj1LTJ8vIOCctHUrIWZZHvvYovrPFBQZsYTCy0fRBoP4ZZ1O4u2C907khpnOkdvVJjQ0MGR+PbnYYFQRVpmtGav47KzfVtA43C79BsSNxAbJevJVWgxRetvdcOT/mOKnWNM56K0S5l3OAMKwjmtRTozNrXWokfyvyGR0XdBwWKB5aCNq5KPKRk7b34qsWY7BciphV3Qtr6W2Ar0ajZ2qWAnUHtbordWIdmKahLtqFEaktrEUefTCyw+9oYObF8ReeK06F1TCvkp+yD8VIeEMEbeXEbOmfKrEPh7v+B8uIebiYYdseWfbDxa+4GLu/Lt3F4d3K+jcm6pfeCt2s06wbORKKmPLqeuO+ZQhk9obvdlMfSIxrTpumxHhHjatZtnInUxlPtTFRt6vx37pNoMEljuMqi88agh/W/adzYzm9TGFz4ZLc1dDzAjde6by/A51dLu5FnVzUOaexQVA2lWjnclpFMnm/j0KRePtz2Ifa8Ma+k2Hpgoq3Fy49eiW/k9bYG7gFlrkplvNbixn27Cd/+Ijw9Jj747TKdEQh1qmvH9Z81lVcb2mdrwlX59jsDOSsXrmet+67lcDuj1tEz0TPZfbVcyG11oDVxL2i7nYiJ5laXXSNHfrp/NzCH7yuBYuGkfNT1UNi/srqMwre1RT1/S2cnVxNf+3YumP9gvFwO7u32u10Jhbepib9XyuH2OLHPG8DD2+CSydNlFkHr+AonyoNmgAvfZmSta/ftdCzvt9/h+KXO/Xi7nviTx9v7ZDzH2wH1+afbB12ebzfU9z3dnij+1fF2RrH/x9sfBS043i4pKObx9kqlEp5ux3T5HxvP6XZPfd/T7aE6/6fbSbVvA7c5s/WZJkLhQfuWpIEosvWZSR0bwdjFG6ljfi5Y3UpD/yqo/5MYYQvqPyS+/SgYEZqxWrutc6O9uH60bighhzPa902H2y4lvj60BYsKuCSuazCax0ZVcfziD8SBeEWy28E70gyTNcfquP79tmxeb0nxhFiRXmR1KLFi/JsVIYsF/Q3LHW+sE55frC6P7W21Out8wE90POzferu0hPGO9X2KEe3VsLpRLnydVqd5wECD1fVw8UYM2vqM2TLRPOKJDnp0VgdumJjsAilm82frbI4A31qPStPi69mtUr9zyqRqRrCjQx+bIRxYgrHshyBqjbNKVhnfuJ7CEOKKBnHffaWVefS+ft93xQB+W2itLEQDnRRBOSYzJULlgGcjEBJRnW6Msk5pFADs6ROPGwF6v/+UDWh60UkOryrrGtEeAAUrmWMDnbxRKHLenQXAnd6yRZCJmRJ2/3jCAzjb/d2JiRXJPCDmhmTvNIa3SmWr08SAZMVD6jFhp4H8ojMTBcC5qX2OGBCu+FJ7d+J+zHZ/aMT1lq0SOuB6K0ELS7iCaJdhqTx1aixJI5KA1QzFzseABab7tnodD+Wmd5GXyXNnKesUdZAXNhUDfK86RVHAUOwOD+6MsuV1PdD69E5gfM9oMTYB15IU4/twJ7liGQZOgG15HT8leIoVwxw7e3Ud/6HzUNPxUAB/ll9/+P2nP7/89Zdfvv766x9/fv/2z88f//+Xb98//+P7t3/99vP9n/748tPvn9ff/hc=);lineShape=1;" parent="1" vertex="1">
                    <mxGeometry x="272.0244704971094" y="39.26347538774746" width="234.32316947802656" height="416.16255290780043" as="geometry"/>
                </mxCell>
                <mxCell id="80" value="" style="shape=stencil(7Z1JkhzHEUVPg21ZzMOaku4BMzYJGCkABoAabi8PgVld9T3rRddOC+2A7u/ZmTH4PLzLP3378P7Ly7sUvn3/+vm3l39+/Pn7h3f5L+9S+vjpw8vXj9/tX+/yX9/ln375/PXl16+f//j084//f3m/kOtff//8j/WEf/2gS+0y26JK4d8/flIuuf73B3/7gf/946d7/PrdDT5fRgB8vVTFx474UO7w6dIT4MulTMGnDPh8meEOH/n5+ZKm4BO9//V1D3y4zIj4OAXfCuDjJQZ9Pq1/uHT93j//4CN8GoKvsD5xXkYT/J8/eIQvWfcL3t/woQoe32ccy/eKH4zPej4DvX+/9CH4DOtp+KjPbwPw7RLvv7ccF+IcXy+xCL7Q95ZLC4JvcF+i3Zch+EHvky/lHl95PZM+vx4H8BE+FcF3eh87jvr8Sftlx/3+fDa874ZPUfCV3t+uaxU88QfDt/v71S+J1jNcchc87m+4BMXT+th1v1+egeJiXmoVeIevncdaH/B5vN0pfByv+gov8PShSzmPu/wAnu931tYqwrd2fRvDV1j6rpzq9Ww8wIvktbNHn9sOxneDH7Ca7VLkfdIlw9Vqx8W+wQ/4Xruo90fHeEVGfOmKH7A+9RD8V7yxQhAtVSWL4Sesj/1Wnl8PXvoA3+U8MCsxRuzwdBUNL+fTZBM+Xzibyb6Kzy+yv3ab4byVQxBeJW84dvAR/v58mupQ4DwU5bQm2jOwwqKSd4lq3C/VPAuqkvk4LVd8RdXWTq+sT0PulvX+rhsN+5UvXTSlfjC8B/h2LxmN49H6G16eP1F1y8rfsskaOD/5EFQ3eOLPHh8PafMAX+/XP6fjBD7Cy/NNNcT1F35leOKH+eBOV3xBeXHllld8RVU+O0utbtYzyPo0NgVVkzE8yZeklkLuyJ+TygvDT3j/pJptHsif06EoX/GTTTu3nhPldVL5WALex3goglc8y/eolmZJyH+iWuKGR9Xz4K5XfMb1jAc3uOKNf8L6OEu2bEyLg3tc8RVNHdOmxDIyfgv3Kxyn9wZP+xVUFS4d+UlQfl7GJTyJJ1PH8LI+87DF3oav4Tjhb8bTffT4iMq/xyc8/x5vHOyp98kHh3kj3jSWp55fUd6d4RvcF49nffIMT/qDx3fU9zx+HL6IN+OfW/95+OLejCfXj8O3gPbOGZ5cXR4fnzs/hn9qv1pCV9QZfj61Pvk5ftIK6ktn+P7UetbDYn0jvj13PtuT96X15+5vG8/xtzYv8an1mc+9fw8o38NhfV/x7AoPqs/0iPpGUHuqJzxvUe21bvwf9ROxBzufZ+fZM/wkV9phXV7xHEqJ6gk3fEd8vbfXekV/VFT92fAV9SuxTw1P/CG59W/In53n1vDkmkzqf+jXWNUje0H2i12l19Nygyd5l4+n3eCJX+VDm73iB9pr5dKS4husv4uUGZ7kUXXnbaK+1A5r4gZP69PUvjM86fPX1b76hgPyt3H89gbP7t7p8KTPT7VnB/tjl7v2/sIMjq3FqB4XIyCNIya3RMYEyIR0PoLBPt9YLlH+QuL4QlGpYQQYgHEB4MFu3+UllX0rh6f2EYE4Zo2AGFfs6tkZlS3hoUG20dGUNIJxz1vGOLjfOcHUsNmYyKxXnPb+tM7A3Doeb3wlYPfp4u/33zAz3mfvcJoVd3p5yO+XdTaUgCu2Jh/dDyP/nGDoBZqDfagu3DaZ6WXnBTMClArtMPpvCEhtz1P9/HOwHz6rILFVSkTQ1dNgG0dBTDPM9fBldC2aJSm+mxkxbcRMn+7uAxlzpqtL3NOuKGkLpuzqnbbTBa/UXSaIcQ3S70x9EoXZ+FIhgq4a88h4H7pLpjACYjNLYgpfSniBhuMaG3Zvv5Z4sv2EogrrBRxBhJ22T/RCkVJgbNV1pyMqnkYgnsARMXI0XGhzMDO2o9acrkGHzw5zLUpAeRUmb4pYaxOjfXa/NHGA1UOTN6rPG18CXcOuvDjEjYCk6OIRTqOniKJJtCoqfcN9MLYl2TZGQD7cxeeckdQoX6I4rbuiNmOsNzizkOTDdAqWcSpMsqjO0M6YY2RSucg+JBTsS4zLKsVDiJ0TdNXtO6e1GYHoS52NByOQK9omRp9mV/OhDczMM6kc71+pdYz/GYEEWEyIETM2AokwGgFu3DishRuXGfHWOTSG1grGeBeBcxISq5xDlZOWeB88QURWeUIQ0I72BJUN11MC8nSeEAzUvU8IOvrmTgjawTzfSlAxmnNKQO6nE4KC/qFFcH+8a8YAnxFIBLSm3dEQvlQ5ZWAO9WnUwIxsqC1a5pGAe04w1coqg7nGVAWrbKTodBmiHf22i0C+gXMa1yvJX6joOVmrlJSAQiNr4yQrtqCva3G+pASYqDjUeC2cvWHyQbR7I6B0oSWyhCCxvtTdTkd+peZWKWKG0RLsQhD4aDSV02adkkkzq+70JiljOlU6d0zQNwKRQJnDNktfakqAq1RV986VGVl1mUMFnTmLwKcOsQrXHEHcLKtLftptnKzS9vDp0YiY/mEEov6sfC/66OZWKRwq1yMCzaCbGKFbN86luKG+1DVHOG1soK5BnMRJTdP5ZoxgwyqD/IWGFvt0ec7L889SVI534kDsHBqZec2NfaPYTQVDt0ugSC5m5hs31RZd6WwkUJxQTJydMqfeh8Su+EUwlCCx2FWCjXIytdYocgb8CcFAh9QJQcdynRMCTtI6IeAss0Ugad5ccTSn5kFO9iFMZ7CztuTiUhtpMlTRyOjNna4CamN7Xys4DnzYsTB5/8B38wzPvgAJqwX2Qw3VPgM7WIaGvAKfuKF5jZzGvNbT4Zmdlifx9Ul8c3g6z0OjlGHnZOh6fsgz6Y2wsDOeh+7XxoeR9Pno0js5n8gUu6uTYRuy6funo2T1EV7zsNmorS7v9hDojzySanGyvpzU+1dZ6wq6PlzRNxz/YX443PpUjFiPrCE9TptfQfyseFjPlaWheLpfven3Fgw+96IKHStPK8tKzHdUeleWmJ4HTPNwdWsFfVkrS08rzGn9W1YJX5DftuAsRrSdVpaqylOSj7Xq+mTUdquvS8HzXF1eV0a/WpkaO8oov0pXE5xDfqUdOSmv+AH3t7iARUI9d/lVxjP4pPd3g496vxK6ilYVh3sfKsMZzoTD+5i7U9NRh84ubJzQLF6+Be2A0KisLGugL2E0NCctyk0YSDSzP+t5IH1yqdcqHxE/9L4n1LeXcarrT++/xIme/83z3fnHzB0XXWZ9IF2zom/wIF98Vk3iMi5Xp5pQXr+Kqxs8dbioWueTMFJneK0LRfsiOX9eOgT4I7z7XuK3rw0DbvC0X0397QkNVN9RhcsSz/BYRnfyPhREP/teKks8W0+8vyf7tbmP7jxs8O68Uc7k2Xkm/efsvpAn9fQ+0vqc3HeKqJ7xE+yAc8KvSJ8/44eb++j47eY+Pocfrq6b32ee8BOSv0Hjlrw+Ju+K7heWRbu604Q5WyavfYcjkr/FeVsxyTg7T39CB7PpM0n3C8vGXViX+U8JJx1/KHsxur4DKH9L8u9D/MH01af0k6UPu/ehtH/Xd4P1sRXudfohtTWYLoKA+uqq0tTnk31as/o3MvrfqpMvGeVpdf6BjPyzubrfjPvVfB0+ttFo1dtfFOxuLoJT0J9g9rjEMgr6N3rS81YwMNFdH42C/qveNOuooH3RnX5ecD2Hq7Pi0P7I/vmYwtq8P4f8pcsfpf4r9H8GlS+V/clJE8ALR56yvk/heF5R+cJtTJb/UMKqHM2r3l5GfFP/8yZ/q3v/PGbQ/D8e8f94xD3+fyse4QLBgeMFU5NyImfMTPWP5V18s0uaHccfp6tj3GWDSYfNbfxU7uMmQBtD0AjGJgZ8RsFh5jMKjmSfUXCw/IyC4/EnFPuQvxrzcbfbyt0jun8Xgaiv7J9a56krAabATK0FWhod3yDV8Asnh0/NFkyF86+m85FXrkyYzmhtaOW+1qndEJAa5dNt7Z5igspwdtPYCRIRVGnssvo1jYc7GMyuoZOVsMWx2Cyxk8DJEV2LmlfSGWsvoo3nTVZOU/a6Euc4Pqx9q66V748IxGGykv84cU5XKWMx3XQhoE1rsulimrsUSVeulxtL6ea6dTXmS81lbfZdeqHGEQcLOn80JnO+rpXNJaDrZ2ULCkFk3bBrbM0INpl2UslZuL/yYjMu7RnTAaYzdzK/kvPXlU1Cw3SrVHYp9GpBVnQpLJFVlQArdZxQ3KfQSxlx6bvkP93pbRmAtgcbXOUy1W+9L2XQ+o1N4c1Uzle5vcHaaTHl2Tc4XVn9rqRkuuSVTdGKJ9iUxZwRbNQfJdiU9niCTfGQJ9iUJ3mCTQHUGcHm8AnBrojLlULvysQ8waYQbaoE2pW6TU2caoWVE1eCu8r1+E6LK34VBG6SYV0FITqfXIvt1lmbGar+tMFdV4bK6TYxnrBEli/9pMPnHD6ruJSlqPClVb7KdQPaKopjfF5J7NxbdjYVip291LOq17kX1iqrhpX7pla0nPSjwlfKKhSXa5kuUHY73dlCcS1g+8ZXEV1PM+5hOF0/hJX+RxsXTrooJVjW4Xrg98kdF5y/bnAfz+G0ytUYiTI0m9ZZjsgtGlzV1+ApIkYgF2jwGJHhmpkPjuqO7F6Jw5yrz8VQArIfVlOJqQTEW4draGsvSex+BNeMI3Oox7W/eV2Gc4KmsexR0MTvLjhqW0kaWQ9uWRunp7rWMWNw/Cy5pigT+/rX7nr+RIzomdKpHk7uDGiatizra5njOYGL0U2u+ipB/UuTJ22s3t7yF+YuDVDSYG+8kecUQQNvkw2I1LWj8mttzTlBVZtmDtR/VqhWNqKhqeibhNvOYbZV1GzPmTG9fjXyksPEemh0eugMeL6jS1BfvcXIzdxdQ7XBQ3m6ehFGx5La2LRod1T+BtezZPV4o1579aSLHPkeoxt3MTK6dKOrKxjcTzc6tjHYeo3JNS7i1MPoWooO5mQxaK7ZiJsIhHpzNr2UnDPH8NR0dbhti+hecgW4JiTpurmK99V4iTqXuXlHAbMxql5/095QNGhyRZ+oKbkhH51HJGV1zHZuL+Ha2fXdEAXRJTu7DlznuD5QlXRNCHtHt290nYc286/U+jQ8N+3VJr+bTpCu6XBDeyE4W7VhqyU3hKBXVDqDa5LLrf6CFhd0rv4Kri9TQYYSNAi1ul1hU2mJTPSMntigxYCdq+mCDpFahjk2rdbGVZzNHzQ5eZVrwfkPrskvh59cgHjb1Fvw26bhHs9NyRW/a3qu+F1TdcXvmrZ7PDeFV/yu6bzid03tPZ6b5it+15Rf8bum/x7PQwUUvxta4PE8FEHxu6ELHs9DHQS/HRrh8emZ790OvfD4p87ndmiH4p+8L9uhI4rfDTXxeOa3it8NZVH8buiLx/NQGcXvhtYofjcUR/G7oTsen545z9uhQb5dGQ8l0qFNu6FHGi3eDVWSZPjt0Cbf24zfR4vr62Z/Rd/YxKKd/lM4WzdoB+ySN/qb6Hslbe67DiHjaj0/xCvyPGSXbxCQP8STIW08hEO7gc3NEDLti8VJH9H1M+M200nPp+FpfZzJv9JccMhcGorHnusak1xDAfH9dXw76//JDVksaM8mV0zBqUluvHpm/uy8+Juhj0nDZpuhkh7P3UOS2muboZhJk283QzeTS64cXC3ssjdZ387KzxOnYeWTbmSU5+UaMi+PCuLFXlvVDvC9We33TXeG7JIkuZo6azL8Kwd7hJf9ChimdUNVN0N5s96XyPzN9beO2yE3MqS5oX7iHPBr3Ad1u9Dipsj+iqLyOnJ1UNGUi8j+h+KKWTIOMih6f2NG+70q/48Jg+p+SHZC/dw1M4mbQQzufSLyz6bFqjFsho7reQtoX3fVNyJX13QXLMFQt+sSPjH1cLjYJB5+l7nCA55cn8XBjY5cTgm3UD9pW4eOfHWkcSq3y+rhnDU9Bg1r6qNzozWMCcegwZ2Kpz46t+pmdFpUMVTxFkaXK8BWb3Szh7mmMiZdT87fjq4nTMFbHouGUTivIFY1GzNGgg0v1Q+ZY6JNEx0yj0LuTi1Bq8jwElhLPMrZRbI52SS67tMJtSQf0mUvgikJYoZElHJ+HBXnncepZhG38k1BzRDm+uvzXM0m9dBwYSnua73UVMVjT57sn0857SdqDPfAKSqHIkqKVH3Pq03PDVX7+fm++gKjjks4aA0+1YwvUaU98bCnkKvJ5QLAJai1xx1p/ev5jh/Seroea9wTb2W6aE03ZpU4vaSwVde1GKzw/eqqtm3xOht+h0/u/Xk9o3t/Pg9Bn0/8NjU1Q3g6wB5v//jy/vuHH//55ePvv3/7/vXzby+3v//l89eXX79+/uPTz9cfffvw/suL/e8/);lineShape=1;" vertex="1" parent="1">
                    <mxGeometry x="20.54105122883948" y="26.897642197850246" width="205.37025732350668" height="664.4307740119862" as="geometry"/>
                </mxCell>
            </root>
        </mxGraphModel>
    </diagram>
</mxfile>